<svg width="55" height="35" viewBox="0 0 55 35" fill="none" xmlns="http://www.w3.org/2000/svg">
<mask id="path-1-inside-1_3012_21876" fill="white">
<path d="M43.54 33.4133C39.7133 33.4133 36.9133 32.9467 35.1867 32.34C35.5133 32.34 35.7933 32.3867 36.1667 32.3867C38.8267 32.2933 41.44 31.92 43.96 31.22C45.9667 30.7067 47.9267 30.0067 49.7933 29.12C52.5467 29.6333 53.9933 30.4733 53.9933 31.0333C54.04 31.8267 50.4467 33.4133 43.54 33.4133ZM31.8733 26.04C31.6867 25.8533 31.6867 25.4333 31.92 24.7333C32.8533 24.2667 33.6933 23.66 34.3933 22.8667C36.26 20.9533 37.8467 18.8067 39.1533 16.4733C39.5267 15.7733 39.9 15.12 40.2267 14.4667C43.0733 12.0867 45.2667 11.1067 46.2 11.1067C46.34 11.1067 46.5267 11.1533 46.62 11.2467C47.1333 11.76 46.1533 14.6067 42.6533 18.5267C41.9067 18.9 41.16 19.2733 40.4133 19.6933C38.08 21 35.9333 22.5867 34.02 24.4067C33.5067 24.92 33.04 25.48 32.6667 26.04C32.2467 26.18 32.0133 26.18 31.8733 26.04ZM37.66 16.8C36.54 18.7133 35.1867 20.5333 33.6 22.12C33.2733 22.4467 32.9933 22.7267 32.7133 22.9133C34.02 20.72 35.6533 18.7133 37.52 16.8933L37.66 16.8ZM30.8467 23.8C30.7533 23.7067 30.66 23.5667 30.6133 23.4267C31.3133 22.7733 31.92 22.0267 32.3867 21.1867C33.6467 18.8533 34.6733 16.38 35.3267 13.7667C35.6067 12.6 35.8867 11.4333 36.0733 10.3133C38.36 7.14 40.32 5.69333 41.1133 5.69333C41.2067 5.69333 41.2533 5.69333 41.3 5.74C41.58 5.88 41.86 6.72 41.2533 8.96C40.7867 10.64 40.1333 12.2733 39.34 13.86C38.4533 14.6067 37.6133 15.4 36.7733 16.1933C34.2067 18.76 32.0133 21.6533 31.1267 23.8467C30.9867 23.8467 30.94 23.8467 30.8467 23.8ZM29.1667 22.9133C29.0267 22.8667 28.8867 22.7267 28.84 22.5867C29.12 22.3067 29.3533 22.0267 29.54 21.6533C29.4933 22.0733 29.4467 22.4467 29.4467 22.8667C29.3533 22.9133 29.26 22.96 29.1667 22.9133ZM25.9 22.9133C25.76 22.96 25.5733 22.9133 25.2933 22.68C25.2467 21.84 25.1533 21.0467 24.92 20.2533C24.1733 17.6867 23.1 15.2133 21.7467 12.9267C21.2333 12.0867 20.72 11.2933 20.2067 10.5C19.32 5.69333 19.8333 2.94 20.5333 2.75333H20.6267C21.3267 2.75333 22.9133 4.66667 24.4067 8.54C24.2667 9.56667 24.2667 10.5467 24.2667 11.5267C24.2667 15.96 25.0133 20.44 26.4133 22.2133C26.2267 22.6333 26.0867 22.8667 25.9 22.9133ZM20.9533 13.86C22.1667 15.96 23.1467 18.2 23.8467 20.58C23.8933 20.8133 23.94 21 23.9867 21.2333C23.8467 21.0467 23.7533 20.86 23.6133 20.6267C22.4933 18.48 21.56 16.1933 20.9533 13.86ZM17.9667 16.1467C17.1733 15.3533 16.3333 14.56 15.4933 13.86C14.7 12.2733 14.0467 10.64 13.5333 8.91333C12.9267 6.67333 13.2533 5.83333 13.4867 5.69333C13.5333 5.64667 13.6267 5.64667 13.6733 5.64667C14.5133 5.64667 16.66 7.28 19.1333 10.92C19.32 11.8533 19.5067 12.7867 19.7867 13.72C20.44 16.2867 21.42 18.8067 22.7267 21.14C23.1467 21.8867 23.6133 22.54 24.1733 23.1467C24.1267 23.52 23.9867 23.7067 23.8933 23.7533C23.8 23.8 23.7067 23.8 23.6133 23.8C22.7267 21.6067 20.4867 18.7133 17.9667 16.1467ZM17.1733 16.94C18.9933 18.7133 20.58 20.6733 21.8867 22.8667C21.6533 22.68 21.42 22.4467 21.0933 22.1667C19.6 20.58 18.2933 18.8067 17.1733 16.94ZM14.7 19.74C13.72 19.18 12.6933 18.6667 11.76 18.2C8.54 14.4667 7.60667 11.76 8.12 11.2467C8.26 11.1533 8.4 11.1067 8.58667 11.1067C9.52 11.1067 11.76 12.0867 14.6533 14.5133C14.98 15.1667 15.3067 15.82 15.7267 16.4733C17.0333 18.8067 18.62 20.9533 20.44 22.8667C21.14 23.6133 21.98 24.22 22.8667 24.6867C23.1 25.3867 23.1 25.8067 22.9133 25.9933C22.82 26.0867 22.68 26.1333 22.54 26.1333C21.2333 24.1733 18.1067 21.7 14.7 19.74ZM1.12 30.9867C1.12 30.4733 2.52 29.6333 5.22667 29.12C7.09333 29.96 9.05333 30.66 11.0133 31.1733C13.5333 31.8733 16.1933 32.2933 18.8067 32.34C19.18 32.34 19.5533 32.34 19.9267 32.2933C18.2 32.9 15.3533 33.3667 11.5267 33.3667C4.71333 33.4133 1.12 31.8267 1.12 30.9867ZM1.86667 25.06C1.96 24.78 2.70667 24.2667 4.99333 24.2667H5.04C6.48667 24.2667 7.88667 24.4067 9.28667 24.6867C9.89333 25.1067 10.5467 25.48 11.1533 25.8533C12.2267 26.46 13.3467 27.0667 14.4667 27.58C13.4867 27.4867 12.5067 27.4867 11.5267 27.4867C9.47333 27.4867 7.37333 27.6267 5.36667 27.9533C2.84667 26.74 1.72667 25.5733 1.86667 25.06ZM19.6 28.1867C17.22 27.6267 14.8867 26.74 12.7867 25.48C15.1667 26.0867 17.4533 27.02 19.6 28.1867ZM11.2933 30.1467C9.94 29.7733 8.58667 29.3533 7.23333 28.84C8.63333 28.7 10.08 28.6067 11.5267 28.6067C17.64 28.6067 21.14 29.8667 21.84 30.7533C21.0467 31.4067 17.3133 31.7333 11.2933 30.1467ZM14 20.6267L14.14 20.72C17.3133 22.54 19.46 24.3133 20.72 25.6667C19.0867 24.92 16.7533 23.3333 14 20.6267ZM3.87333 17.5933C4.01333 17.3133 4.85333 17.0333 7.09333 17.64C8.44667 18.0133 9.75333 18.5267 11.06 19.0867C11.6667 19.7867 12.32 20.44 12.9733 21.14C16.0067 24.1733 19.5533 26.7867 21.84 27.16C22.0267 27.5333 22.0733 27.86 21.98 28C21.8867 28.0933 21.7933 28.1867 21.7 28.1867C21.2333 27.86 20.7667 27.5333 20.2533 27.2533C17.92 25.9467 15.4467 24.9667 12.8333 24.3133C11.76 24.0333 10.6867 23.8 9.66 23.6133C5.22667 20.72 3.5 18.2 3.87333 17.5933ZM27.7667 1.07333C28.42 1.07333 29.54 3.22 29.96 7.42C29.3533 8.86667 28.8867 10.4067 28.4667 11.9C28.0467 13.44 27.7667 14.98 27.5333 16.5667C27.3 14.98 27.02 13.44 26.6 11.9467C26.2733 10.7333 25.9 9.52 25.48 8.4C25.8533 3.59333 27.0667 1.07333 27.7667 1.07333ZM34.3933 12.8333C34.3467 13.0667 34.3 13.2533 34.2067 13.4867C33.6 15.96 32.6667 18.34 31.4533 20.6267C31.22 21.0467 30.94 21.4667 30.66 21.84C30.7067 21.42 30.8 21 30.94 20.58C31.6867 18.1067 32.7133 15.7733 34.02 13.5333C34.1133 13.3 34.2533 13.0667 34.3933 12.8333ZM29.54 12.2267C29.7267 11.48 29.96 10.78 30.1467 10.1267C30.1467 10.5933 30.1467 11.06 30.1467 11.5733C30.1467 16.7533 29.26 20.0667 28.4667 21.3733C28.2333 19.6 28.3733 16.4733 29.54 12.2267ZM26.6467 20.5333C25.9467 18.9 25.34 15.8667 25.34 11.5733C25.3867 11.8067 25.48 11.9933 25.5267 12.2267C26.5067 15.8667 26.74 18.6667 26.6467 20.5333ZM34.4867 2.75333H34.58C35.2333 2.94 35.7467 5.46 35 9.84667C34.3 10.8267 33.6467 11.9 32.9933 12.9733C32.1533 14.3733 31.4533 15.82 30.8467 17.3133C31.1267 15.4 31.3133 13.44 31.3133 11.48C31.3133 10.1267 31.2667 8.82 31.1267 7.56C32.48 4.34 33.8333 2.75333 34.4867 2.75333ZM34.86 25.2467C36.4467 23.7533 38.1733 22.4 40.04 21.28C38.4533 22.82 36.7267 24.1267 34.86 25.2467ZM48.02 17.64C48.72 17.4533 49.4667 17.3133 50.2133 17.3133C50.8667 17.3133 51.1933 17.4533 51.24 17.5933C51.38 17.8733 51.24 18.7133 49.6067 20.3467C48.3467 21.56 46.9467 22.68 45.5 23.6133C44.4267 23.8 43.3067 24.0333 42.14 24.36C38.64 25.2933 35.28 26.6933 33.3667 28.1867C33.2733 28.14 33.2267 28.0933 33.18 28.0467C33.0867 27.9067 33.1333 27.58 33.3667 27.0667C35.6533 26.4133 38.92 23.9867 41.72 21.14C42.28 20.58 42.7933 20.02 43.3067 19.46C44.8 18.6667 46.3867 18.06 48.02 17.64ZM33.2267 30.7533C33.74 29.8667 37.2867 28.56 43.5867 28.56C44.9867 28.56 46.3867 28.6067 47.7867 28.7933C46.4333 29.3067 45.08 29.7733 43.7267 30.1467C37.8467 31.6867 34.16 31.4067 33.2267 30.7533ZM35.28 28.2333C37.52 27.02 39.9 26.04 42.42 25.4333H42.5133C40.5533 26.5067 38.5 27.3933 36.4 28C35.98 28.0933 35.6067 28.1867 35.28 28.2333ZM49.9333 24.3133C52.2667 24.3133 53.0133 24.78 53.1067 25.1067C53.2 25.4333 52.78 26.18 50.82 27.3467C50.4467 27.5333 50.0733 27.7667 49.6533 27.9533C47.6467 27.6267 45.64 27.44 43.5867 27.4867C42.6067 27.4867 41.6267 27.5333 40.6933 27.58C41.7667 27.1133 42.8867 26.5067 44.0067 25.8533C44.66 25.48 45.3133 25.06 45.9667 24.6867C47.2267 24.4533 48.58 24.3133 49.9333 24.3133ZM51.2867 28.3267L51.3333 28.28C53.48 27.02 54.4133 25.8533 54.1333 24.78C53.8533 23.7067 52.4533 23.1933 49.9333 23.1933C49.28 23.1933 48.5333 23.24 47.7867 23.3333C48.6733 22.68 49.5133 21.9333 50.3067 21.14C52.08 19.3667 52.6867 18.0133 52.1267 17.0333C51.5667 16.1 50.0733 15.9133 47.6933 16.5667C46.76 16.8467 45.78 17.1733 44.8933 17.5467C47.2267 14.56 48.5333 11.7133 47.3667 10.5C46.2933 9.42667 43.8667 10.4533 41.16 12.3667C41.58 11.34 41.9533 10.3133 42.28 9.24C42.9333 6.81333 42.7467 5.32 41.8133 4.80667C40.5067 4.06 38.4067 5.64667 36.3533 8.16667C36.68 4.80667 36.3533 2.14667 34.9067 1.72667C33.6 1.35333 32.1533 3.03333 30.8467 5.6C30.2867 2.38 29.26 0 27.7667 0C26.18 0 25.1067 2.75333 24.5933 6.3C23.24 3.36 21.6067 1.30667 20.2067 1.68C18.6667 2.1 18.34 4.99333 18.76 8.58667C16.52 5.78667 14.28 3.96667 12.88 4.76C11.9467 5.32 11.76 6.81333 12.4133 9.19333C12.6933 10.2667 13.1133 11.34 13.5333 12.3667C10.8267 10.4067 8.30667 9.38 7.28 10.4533C6.25333 11.5267 7.37333 14.3267 9.56667 17.22C8.86667 16.94 8.12 16.7067 7.37333 16.52C4.94667 15.8667 3.45333 16.0533 2.94 16.9867C2.1 18.4333 4.2 20.9067 7.32667 23.2867C6.53333 23.1933 5.78667 23.1467 4.99333 23.1467C2.52 23.1467 1.07333 23.7067 0.793333 24.7333C0.466667 25.8533 1.72667 27.1133 3.73333 28.28C1.49333 28.8867 0 29.7267 0 30.94C0 33.2733 5.78667 34.44 11.5267 34.44C17.2667 34.44 23.0533 33.2267 23.0533 30.94C23.0533 30.8933 23.0533 30.8 23.0533 30.7533V30.7067C23.1467 30.0533 22.96 29.4 22.4933 28.98C22.68 28.84 22.82 28.7 22.9133 28.5133C23.1467 28.0933 23.1467 27.58 22.96 27.1133C23.1933 27.0667 23.4267 26.9267 23.6133 26.74C24.0333 26.32 24.1267 25.6667 23.94 24.8267C24.1267 24.78 24.2667 24.7333 24.4067 24.6867C24.7333 24.5 24.9667 24.1733 25.1067 23.8C25.34 23.8933 25.5733 23.94 25.8067 23.9867C25.9467 23.9867 26.04 23.9867 26.18 23.94C26.6933 23.7533 27.0667 23.38 27.2533 22.9133C27.44 22.96 27.58 23.0067 27.7667 23.0067H27.86C28.0467 23.4267 28.42 23.8 28.8867 23.94C29.0267 23.9867 29.12 23.9867 29.26 23.9867C29.4 23.9867 29.54 23.9867 29.68 23.94C29.82 24.2667 30.0067 24.5467 30.2867 24.6867C30.4267 24.78 30.5667 24.8267 30.7533 24.8267C30.5667 25.62 30.66 26.2733 31.08 26.74C31.36 27.02 31.7333 27.16 32.1067 27.16C31.9667 27.58 31.9667 28.0933 32.2 28.5133C32.2933 28.6533 32.3867 28.7933 32.5267 28.8867C31.9667 29.4933 31.7333 30.1 31.8733 30.7067C31.92 30.8 31.9667 30.94 32.0133 31.0333C32.1533 33.2733 37.8467 34.44 43.54 34.44C49.28 34.44 55.0667 33.2267 55.0667 30.94C55.0667 29.7733 53.5267 28.8867 51.2867 28.3267Z"/>
</mask>
<path d="M43.54 33.4133C39.7133 33.4133 36.9133 32.9467 35.1867 32.34C35.5133 32.34 35.7933 32.3867 36.1667 32.3867C38.8267 32.2933 41.44 31.92 43.96 31.22C45.9667 30.7067 47.9267 30.0067 49.7933 29.12C52.5467 29.6333 53.9933 30.4733 53.9933 31.0333C54.04 31.8267 50.4467 33.4133 43.54 33.4133ZM31.8733 26.04C31.6867 25.8533 31.6867 25.4333 31.92 24.7333C32.8533 24.2667 33.6933 23.66 34.3933 22.8667C36.26 20.9533 37.8467 18.8067 39.1533 16.4733C39.5267 15.7733 39.9 15.12 40.2267 14.4667C43.0733 12.0867 45.2667 11.1067 46.2 11.1067C46.34 11.1067 46.5267 11.1533 46.62 11.2467C47.1333 11.76 46.1533 14.6067 42.6533 18.5267C41.9067 18.9 41.16 19.2733 40.4133 19.6933C38.08 21 35.9333 22.5867 34.02 24.4067C33.5067 24.92 33.04 25.48 32.6667 26.04C32.2467 26.18 32.0133 26.18 31.8733 26.04ZM37.66 16.8C36.54 18.7133 35.1867 20.5333 33.6 22.12C33.2733 22.4467 32.9933 22.7267 32.7133 22.9133C34.02 20.72 35.6533 18.7133 37.52 16.8933L37.66 16.8ZM30.8467 23.8C30.7533 23.7067 30.66 23.5667 30.6133 23.4267C31.3133 22.7733 31.92 22.0267 32.3867 21.1867C33.6467 18.8533 34.6733 16.38 35.3267 13.7667C35.6067 12.6 35.8867 11.4333 36.0733 10.3133C38.36 7.14 40.32 5.69333 41.1133 5.69333C41.2067 5.69333 41.2533 5.69333 41.3 5.74C41.58 5.88 41.86 6.72 41.2533 8.96C40.7867 10.64 40.1333 12.2733 39.34 13.86C38.4533 14.6067 37.6133 15.4 36.7733 16.1933C34.2067 18.76 32.0133 21.6533 31.1267 23.8467C30.9867 23.8467 30.94 23.8467 30.8467 23.8ZM29.1667 22.9133C29.0267 22.8667 28.8867 22.7267 28.84 22.5867C29.12 22.3067 29.3533 22.0267 29.54 21.6533C29.4933 22.0733 29.4467 22.4467 29.4467 22.8667C29.3533 22.9133 29.26 22.96 29.1667 22.9133ZM25.9 22.9133C25.76 22.96 25.5733 22.9133 25.2933 22.68C25.2467 21.84 25.1533 21.0467 24.92 20.2533C24.1733 17.6867 23.1 15.2133 21.7467 12.9267C21.2333 12.0867 20.72 11.2933 20.2067 10.5C19.32 5.69333 19.8333 2.94 20.5333 2.75333H20.6267C21.3267 2.75333 22.9133 4.66667 24.4067 8.54C24.2667 9.56667 24.2667 10.5467 24.2667 11.5267C24.2667 15.96 25.0133 20.44 26.4133 22.2133C26.2267 22.6333 26.0867 22.8667 25.9 22.9133ZM20.9533 13.86C22.1667 15.96 23.1467 18.2 23.8467 20.58C23.8933 20.8133 23.94 21 23.9867 21.2333C23.8467 21.0467 23.7533 20.86 23.6133 20.6267C22.4933 18.48 21.56 16.1933 20.9533 13.86ZM17.9667 16.1467C17.1733 15.3533 16.3333 14.56 15.4933 13.86C14.7 12.2733 14.0467 10.64 13.5333 8.91333C12.9267 6.67333 13.2533 5.83333 13.4867 5.69333C13.5333 5.64667 13.6267 5.64667 13.6733 5.64667C14.5133 5.64667 16.66 7.28 19.1333 10.92C19.32 11.8533 19.5067 12.7867 19.7867 13.72C20.44 16.2867 21.42 18.8067 22.7267 21.14C23.1467 21.8867 23.6133 22.54 24.1733 23.1467C24.1267 23.52 23.9867 23.7067 23.8933 23.7533C23.8 23.8 23.7067 23.8 23.6133 23.8C22.7267 21.6067 20.4867 18.7133 17.9667 16.1467ZM17.1733 16.94C18.9933 18.7133 20.58 20.6733 21.8867 22.8667C21.6533 22.68 21.42 22.4467 21.0933 22.1667C19.6 20.58 18.2933 18.8067 17.1733 16.94ZM14.7 19.74C13.72 19.18 12.6933 18.6667 11.76 18.2C8.54 14.4667 7.60667 11.76 8.12 11.2467C8.26 11.1533 8.4 11.1067 8.58667 11.1067C9.52 11.1067 11.76 12.0867 14.6533 14.5133C14.98 15.1667 15.3067 15.82 15.7267 16.4733C17.0333 18.8067 18.62 20.9533 20.44 22.8667C21.14 23.6133 21.98 24.22 22.8667 24.6867C23.1 25.3867 23.1 25.8067 22.9133 25.9933C22.82 26.0867 22.68 26.1333 22.54 26.1333C21.2333 24.1733 18.1067 21.7 14.7 19.74ZM1.12 30.9867C1.12 30.4733 2.52 29.6333 5.22667 29.12C7.09333 29.96 9.05333 30.66 11.0133 31.1733C13.5333 31.8733 16.1933 32.2933 18.8067 32.34C19.18 32.34 19.5533 32.34 19.9267 32.2933C18.2 32.9 15.3533 33.3667 11.5267 33.3667C4.71333 33.4133 1.12 31.8267 1.12 30.9867ZM1.86667 25.06C1.96 24.78 2.70667 24.2667 4.99333 24.2667H5.04C6.48667 24.2667 7.88667 24.4067 9.28667 24.6867C9.89333 25.1067 10.5467 25.48 11.1533 25.8533C12.2267 26.46 13.3467 27.0667 14.4667 27.58C13.4867 27.4867 12.5067 27.4867 11.5267 27.4867C9.47333 27.4867 7.37333 27.6267 5.36667 27.9533C2.84667 26.74 1.72667 25.5733 1.86667 25.06ZM19.6 28.1867C17.22 27.6267 14.8867 26.74 12.7867 25.48C15.1667 26.0867 17.4533 27.02 19.6 28.1867ZM11.2933 30.1467C9.94 29.7733 8.58667 29.3533 7.23333 28.84C8.63333 28.7 10.08 28.6067 11.5267 28.6067C17.64 28.6067 21.14 29.8667 21.84 30.7533C21.0467 31.4067 17.3133 31.7333 11.2933 30.1467ZM14 20.6267L14.14 20.72C17.3133 22.54 19.46 24.3133 20.72 25.6667C19.0867 24.92 16.7533 23.3333 14 20.6267ZM3.87333 17.5933C4.01333 17.3133 4.85333 17.0333 7.09333 17.64C8.44667 18.0133 9.75333 18.5267 11.06 19.0867C11.6667 19.7867 12.32 20.44 12.9733 21.14C16.0067 24.1733 19.5533 26.7867 21.84 27.16C22.0267 27.5333 22.0733 27.86 21.98 28C21.8867 28.0933 21.7933 28.1867 21.7 28.1867C21.2333 27.86 20.7667 27.5333 20.2533 27.2533C17.92 25.9467 15.4467 24.9667 12.8333 24.3133C11.76 24.0333 10.6867 23.8 9.66 23.6133C5.22667 20.72 3.5 18.2 3.87333 17.5933ZM27.7667 1.07333C28.42 1.07333 29.54 3.22 29.96 7.42C29.3533 8.86667 28.8867 10.4067 28.4667 11.9C28.0467 13.44 27.7667 14.98 27.5333 16.5667C27.3 14.98 27.02 13.44 26.6 11.9467C26.2733 10.7333 25.9 9.52 25.48 8.4C25.8533 3.59333 27.0667 1.07333 27.7667 1.07333ZM34.3933 12.8333C34.3467 13.0667 34.3 13.2533 34.2067 13.4867C33.6 15.96 32.6667 18.34 31.4533 20.6267C31.22 21.0467 30.94 21.4667 30.66 21.84C30.7067 21.42 30.8 21 30.94 20.58C31.6867 18.1067 32.7133 15.7733 34.02 13.5333C34.1133 13.3 34.2533 13.0667 34.3933 12.8333ZM29.54 12.2267C29.7267 11.48 29.96 10.78 30.1467 10.1267C30.1467 10.5933 30.1467 11.06 30.1467 11.5733C30.1467 16.7533 29.26 20.0667 28.4667 21.3733C28.2333 19.6 28.3733 16.4733 29.54 12.2267ZM26.6467 20.5333C25.9467 18.9 25.34 15.8667 25.34 11.5733C25.3867 11.8067 25.48 11.9933 25.5267 12.2267C26.5067 15.8667 26.74 18.6667 26.6467 20.5333ZM34.4867 2.75333H34.58C35.2333 2.94 35.7467 5.46 35 9.84667C34.3 10.8267 33.6467 11.9 32.9933 12.9733C32.1533 14.3733 31.4533 15.82 30.8467 17.3133C31.1267 15.4 31.3133 13.44 31.3133 11.48C31.3133 10.1267 31.2667 8.82 31.1267 7.56C32.48 4.34 33.8333 2.75333 34.4867 2.75333ZM34.86 25.2467C36.4467 23.7533 38.1733 22.4 40.04 21.28C38.4533 22.82 36.7267 24.1267 34.86 25.2467ZM48.02 17.64C48.72 17.4533 49.4667 17.3133 50.2133 17.3133C50.8667 17.3133 51.1933 17.4533 51.24 17.5933C51.38 17.8733 51.24 18.7133 49.6067 20.3467C48.3467 21.56 46.9467 22.68 45.5 23.6133C44.4267 23.8 43.3067 24.0333 42.14 24.36C38.64 25.2933 35.28 26.6933 33.3667 28.1867C33.2733 28.14 33.2267 28.0933 33.18 28.0467C33.0867 27.9067 33.1333 27.58 33.3667 27.0667C35.6533 26.4133 38.92 23.9867 41.72 21.14C42.28 20.58 42.7933 20.02 43.3067 19.46C44.8 18.6667 46.3867 18.06 48.02 17.64ZM33.2267 30.7533C33.74 29.8667 37.2867 28.56 43.5867 28.56C44.9867 28.56 46.3867 28.6067 47.7867 28.7933C46.4333 29.3067 45.08 29.7733 43.7267 30.1467C37.8467 31.6867 34.16 31.4067 33.2267 30.7533ZM35.28 28.2333C37.52 27.02 39.9 26.04 42.42 25.4333H42.5133C40.5533 26.5067 38.5 27.3933 36.4 28C35.98 28.0933 35.6067 28.1867 35.28 28.2333ZM49.9333 24.3133C52.2667 24.3133 53.0133 24.78 53.1067 25.1067C53.2 25.4333 52.78 26.18 50.82 27.3467C50.4467 27.5333 50.0733 27.7667 49.6533 27.9533C47.6467 27.6267 45.64 27.44 43.5867 27.4867C42.6067 27.4867 41.6267 27.5333 40.6933 27.58C41.7667 27.1133 42.8867 26.5067 44.0067 25.8533C44.66 25.48 45.3133 25.06 45.9667 24.6867C47.2267 24.4533 48.58 24.3133 49.9333 24.3133ZM51.2867 28.3267L51.3333 28.28C53.48 27.02 54.4133 25.8533 54.1333 24.78C53.8533 23.7067 52.4533 23.1933 49.9333 23.1933C49.28 23.1933 48.5333 23.24 47.7867 23.3333C48.6733 22.68 49.5133 21.9333 50.3067 21.14C52.08 19.3667 52.6867 18.0133 52.1267 17.0333C51.5667 16.1 50.0733 15.9133 47.6933 16.5667C46.76 16.8467 45.78 17.1733 44.8933 17.5467C47.2267 14.56 48.5333 11.7133 47.3667 10.5C46.2933 9.42667 43.8667 10.4533 41.16 12.3667C41.58 11.34 41.9533 10.3133 42.28 9.24C42.9333 6.81333 42.7467 5.32 41.8133 4.80667C40.5067 4.06 38.4067 5.64667 36.3533 8.16667C36.68 4.80667 36.3533 2.14667 34.9067 1.72667C33.6 1.35333 32.1533 3.03333 30.8467 5.6C30.2867 2.38 29.26 0 27.7667 0C26.18 0 25.1067 2.75333 24.5933 6.3C23.24 3.36 21.6067 1.30667 20.2067 1.68C18.6667 2.1 18.34 4.99333 18.76 8.58667C16.52 5.78667 14.28 3.96667 12.88 4.76C11.9467 5.32 11.76 6.81333 12.4133 9.19333C12.6933 10.2667 13.1133 11.34 13.5333 12.3667C10.8267 10.4067 8.30667 9.38 7.28 10.4533C6.25333 11.5267 7.37333 14.3267 9.56667 17.22C8.86667 16.94 8.12 16.7067 7.37333 16.52C4.94667 15.8667 3.45333 16.0533 2.94 16.9867C2.1 18.4333 4.2 20.9067 7.32667 23.2867C6.53333 23.1933 5.78667 23.1467 4.99333 23.1467C2.52 23.1467 1.07333 23.7067 0.793333 24.7333C0.466667 25.8533 1.72667 27.1133 3.73333 28.28C1.49333 28.8867 0 29.7267 0 30.94C0 33.2733 5.78667 34.44 11.5267 34.44C17.2667 34.44 23.0533 33.2267 23.0533 30.94C23.0533 30.8933 23.0533 30.8 23.0533 30.7533V30.7067C23.1467 30.0533 22.96 29.4 22.4933 28.98C22.68 28.84 22.82 28.7 22.9133 28.5133C23.1467 28.0933 23.1467 27.58 22.96 27.1133C23.1933 27.0667 23.4267 26.9267 23.6133 26.74C24.0333 26.32 24.1267 25.6667 23.94 24.8267C24.1267 24.78 24.2667 24.7333 24.4067 24.6867C24.7333 24.5 24.9667 24.1733 25.1067 23.8C25.34 23.8933 25.5733 23.94 25.8067 23.9867C25.9467 23.9867 26.04 23.9867 26.18 23.94C26.6933 23.7533 27.0667 23.38 27.2533 22.9133C27.44 22.96 27.58 23.0067 27.7667 23.0067H27.86C28.0467 23.4267 28.42 23.8 28.8867 23.94C29.0267 23.9867 29.12 23.9867 29.26 23.9867C29.4 23.9867 29.54 23.9867 29.68 23.94C29.82 24.2667 30.0067 24.5467 30.2867 24.6867C30.4267 24.78 30.5667 24.8267 30.7533 24.8267C30.5667 25.62 30.66 26.2733 31.08 26.74C31.36 27.02 31.7333 27.16 32.1067 27.16C31.9667 27.58 31.9667 28.0933 32.2 28.5133C32.2933 28.6533 32.3867 28.7933 32.5267 28.8867C31.9667 29.4933 31.7333 30.1 31.8733 30.7067C31.92 30.8 31.9667 30.94 32.0133 31.0333C32.1533 33.2733 37.8467 34.44 43.54 34.44C49.28 34.44 55.0667 33.2267 55.0667 30.94C55.0667 29.7733 53.5267 28.8867 51.2867 28.3267Z" fill="black"/>
<path d="M43.54 33.4133C39.7133 33.4133 36.9133 32.9467 35.1867 32.34C35.5133 32.34 35.7933 32.3867 36.1667 32.3867C38.8267 32.2933 41.44 31.92 43.96 31.22C45.9667 30.7067 47.9267 30.0067 49.7933 29.12C52.5467 29.6333 53.9933 30.4733 53.9933 31.0333C54.04 31.8267 50.4467 33.4133 43.54 33.4133ZM31.8733 26.04C31.6867 25.8533 31.6867 25.4333 31.92 24.7333C32.8533 24.2667 33.6933 23.66 34.3933 22.8667C36.26 20.9533 37.8467 18.8067 39.1533 16.4733C39.5267 15.7733 39.9 15.12 40.2267 14.4667C43.0733 12.0867 45.2667 11.1067 46.2 11.1067C46.34 11.1067 46.5267 11.1533 46.62 11.2467C47.1333 11.76 46.1533 14.6067 42.6533 18.5267C41.9067 18.9 41.16 19.2733 40.4133 19.6933C38.08 21 35.9333 22.5867 34.02 24.4067C33.5067 24.92 33.04 25.48 32.6667 26.04C32.2467 26.18 32.0133 26.18 31.8733 26.04ZM37.66 16.8C36.54 18.7133 35.1867 20.5333 33.6 22.12C33.2733 22.4467 32.9933 22.7267 32.7133 22.9133C34.02 20.72 35.6533 18.7133 37.52 16.8933L37.66 16.8ZM30.8467 23.8C30.7533 23.7067 30.66 23.5667 30.6133 23.4267C31.3133 22.7733 31.92 22.0267 32.3867 21.1867C33.6467 18.8533 34.6733 16.38 35.3267 13.7667C35.6067 12.6 35.8867 11.4333 36.0733 10.3133C38.36 7.14 40.32 5.69333 41.1133 5.69333C41.2067 5.69333 41.2533 5.69333 41.3 5.74C41.58 5.88 41.86 6.72 41.2533 8.96C40.7867 10.64 40.1333 12.2733 39.34 13.86C38.4533 14.6067 37.6133 15.4 36.7733 16.1933C34.2067 18.76 32.0133 21.6533 31.1267 23.8467C30.9867 23.8467 30.94 23.8467 30.8467 23.8ZM29.1667 22.9133C29.0267 22.8667 28.8867 22.7267 28.84 22.5867C29.12 22.3067 29.3533 22.0267 29.54 21.6533C29.4933 22.0733 29.4467 22.4467 29.4467 22.8667C29.3533 22.9133 29.26 22.96 29.1667 22.9133ZM25.9 22.9133C25.76 22.96 25.5733 22.9133 25.2933 22.68C25.2467 21.84 25.1533 21.0467 24.92 20.2533C24.1733 17.6867 23.1 15.2133 21.7467 12.9267C21.2333 12.0867 20.72 11.2933 20.2067 10.5C19.32 5.69333 19.8333 2.94 20.5333 2.75333H20.6267C21.3267 2.75333 22.9133 4.66667 24.4067 8.54C24.2667 9.56667 24.2667 10.5467 24.2667 11.5267C24.2667 15.96 25.0133 20.44 26.4133 22.2133C26.2267 22.6333 26.0867 22.8667 25.9 22.9133ZM20.9533 13.86C22.1667 15.96 23.1467 18.2 23.8467 20.58C23.8933 20.8133 23.94 21 23.9867 21.2333C23.8467 21.0467 23.7533 20.86 23.6133 20.6267C22.4933 18.48 21.56 16.1933 20.9533 13.86ZM17.9667 16.1467C17.1733 15.3533 16.3333 14.56 15.4933 13.86C14.7 12.2733 14.0467 10.64 13.5333 8.91333C12.9267 6.67333 13.2533 5.83333 13.4867 5.69333C13.5333 5.64667 13.6267 5.64667 13.6733 5.64667C14.5133 5.64667 16.66 7.28 19.1333 10.92C19.32 11.8533 19.5067 12.7867 19.7867 13.72C20.44 16.2867 21.42 18.8067 22.7267 21.14C23.1467 21.8867 23.6133 22.54 24.1733 23.1467C24.1267 23.52 23.9867 23.7067 23.8933 23.7533C23.8 23.8 23.7067 23.8 23.6133 23.8C22.7267 21.6067 20.4867 18.7133 17.9667 16.1467ZM17.1733 16.94C18.9933 18.7133 20.58 20.6733 21.8867 22.8667C21.6533 22.68 21.42 22.4467 21.0933 22.1667C19.6 20.58 18.2933 18.8067 17.1733 16.94ZM14.7 19.74C13.72 19.18 12.6933 18.6667 11.76 18.2C8.54 14.4667 7.60667 11.76 8.12 11.2467C8.26 11.1533 8.4 11.1067 8.58667 11.1067C9.52 11.1067 11.76 12.0867 14.6533 14.5133C14.98 15.1667 15.3067 15.82 15.7267 16.4733C17.0333 18.8067 18.62 20.9533 20.44 22.8667C21.14 23.6133 21.98 24.22 22.8667 24.6867C23.1 25.3867 23.1 25.8067 22.9133 25.9933C22.82 26.0867 22.68 26.1333 22.54 26.1333C21.2333 24.1733 18.1067 21.7 14.7 19.74ZM1.12 30.9867C1.12 30.4733 2.52 29.6333 5.22667 29.12C7.09333 29.96 9.05333 30.66 11.0133 31.1733C13.5333 31.8733 16.1933 32.2933 18.8067 32.34C19.18 32.34 19.5533 32.34 19.9267 32.2933C18.2 32.9 15.3533 33.3667 11.5267 33.3667C4.71333 33.4133 1.12 31.8267 1.12 30.9867ZM1.86667 25.06C1.96 24.78 2.70667 24.2667 4.99333 24.2667H5.04C6.48667 24.2667 7.88667 24.4067 9.28667 24.6867C9.89333 25.1067 10.5467 25.48 11.1533 25.8533C12.2267 26.46 13.3467 27.0667 14.4667 27.58C13.4867 27.4867 12.5067 27.4867 11.5267 27.4867C9.47333 27.4867 7.37333 27.6267 5.36667 27.9533C2.84667 26.74 1.72667 25.5733 1.86667 25.06ZM19.6 28.1867C17.22 27.6267 14.8867 26.74 12.7867 25.48C15.1667 26.0867 17.4533 27.02 19.6 28.1867ZM11.2933 30.1467C9.94 29.7733 8.58667 29.3533 7.23333 28.84C8.63333 28.7 10.08 28.6067 11.5267 28.6067C17.64 28.6067 21.14 29.8667 21.84 30.7533C21.0467 31.4067 17.3133 31.7333 11.2933 30.1467ZM14 20.6267L14.14 20.72C17.3133 22.54 19.46 24.3133 20.72 25.6667C19.0867 24.92 16.7533 23.3333 14 20.6267ZM3.87333 17.5933C4.01333 17.3133 4.85333 17.0333 7.09333 17.64C8.44667 18.0133 9.75333 18.5267 11.06 19.0867C11.6667 19.7867 12.32 20.44 12.9733 21.14C16.0067 24.1733 19.5533 26.7867 21.84 27.16C22.0267 27.5333 22.0733 27.86 21.98 28C21.8867 28.0933 21.7933 28.1867 21.7 28.1867C21.2333 27.86 20.7667 27.5333 20.2533 27.2533C17.92 25.9467 15.4467 24.9667 12.8333 24.3133C11.76 24.0333 10.6867 23.8 9.66 23.6133C5.22667 20.72 3.5 18.2 3.87333 17.5933ZM27.7667 1.07333C28.42 1.07333 29.54 3.22 29.96 7.42C29.3533 8.86667 28.8867 10.4067 28.4667 11.9C28.0467 13.44 27.7667 14.98 27.5333 16.5667C27.3 14.98 27.02 13.44 26.6 11.9467C26.2733 10.7333 25.9 9.52 25.48 8.4C25.8533 3.59333 27.0667 1.07333 27.7667 1.07333ZM34.3933 12.8333C34.3467 13.0667 34.3 13.2533 34.2067 13.4867C33.6 15.96 32.6667 18.34 31.4533 20.6267C31.22 21.0467 30.94 21.4667 30.66 21.84C30.7067 21.42 30.8 21 30.94 20.58C31.6867 18.1067 32.7133 15.7733 34.02 13.5333C34.1133 13.3 34.2533 13.0667 34.3933 12.8333ZM29.54 12.2267C29.7267 11.48 29.96 10.78 30.1467 10.1267C30.1467 10.5933 30.1467 11.06 30.1467 11.5733C30.1467 16.7533 29.26 20.0667 28.4667 21.3733C28.2333 19.6 28.3733 16.4733 29.54 12.2267ZM26.6467 20.5333C25.9467 18.9 25.34 15.8667 25.34 11.5733C25.3867 11.8067 25.48 11.9933 25.5267 12.2267C26.5067 15.8667 26.74 18.6667 26.6467 20.5333ZM34.4867 2.75333H34.58C35.2333 2.94 35.7467 5.46 35 9.84667C34.3 10.8267 33.6467 11.9 32.9933 12.9733C32.1533 14.3733 31.4533 15.82 30.8467 17.3133C31.1267 15.4 31.3133 13.44 31.3133 11.48C31.3133 10.1267 31.2667 8.82 31.1267 7.56C32.48 4.34 33.8333 2.75333 34.4867 2.75333ZM34.86 25.2467C36.4467 23.7533 38.1733 22.4 40.04 21.28C38.4533 22.82 36.7267 24.1267 34.86 25.2467ZM48.02 17.64C48.72 17.4533 49.4667 17.3133 50.2133 17.3133C50.8667 17.3133 51.1933 17.4533 51.24 17.5933C51.38 17.8733 51.24 18.7133 49.6067 20.3467C48.3467 21.56 46.9467 22.68 45.5 23.6133C44.4267 23.8 43.3067 24.0333 42.14 24.36C38.64 25.2933 35.28 26.6933 33.3667 28.1867C33.2733 28.14 33.2267 28.0933 33.18 28.0467C33.0867 27.9067 33.1333 27.58 33.3667 27.0667C35.6533 26.4133 38.92 23.9867 41.72 21.14C42.28 20.58 42.7933 20.02 43.3067 19.46C44.8 18.6667 46.3867 18.06 48.02 17.64ZM33.2267 30.7533C33.74 29.8667 37.2867 28.56 43.5867 28.56C44.9867 28.56 46.3867 28.6067 47.7867 28.7933C46.4333 29.3067 45.08 29.7733 43.7267 30.1467C37.8467 31.6867 34.16 31.4067 33.2267 30.7533ZM35.28 28.2333C37.52 27.02 39.9 26.04 42.42 25.4333H42.5133C40.5533 26.5067 38.5 27.3933 36.4 28C35.98 28.0933 35.6067 28.1867 35.28 28.2333ZM49.9333 24.3133C52.2667 24.3133 53.0133 24.78 53.1067 25.1067C53.2 25.4333 52.78 26.18 50.82 27.3467C50.4467 27.5333 50.0733 27.7667 49.6533 27.9533C47.6467 27.6267 45.64 27.44 43.5867 27.4867C42.6067 27.4867 41.6267 27.5333 40.6933 27.58C41.7667 27.1133 42.8867 26.5067 44.0067 25.8533C44.66 25.48 45.3133 25.06 45.9667 24.6867C47.2267 24.4533 48.58 24.3133 49.9333 24.3133ZM51.2867 28.3267L51.3333 28.28C53.48 27.02 54.4133 25.8533 54.1333 24.78C53.8533 23.7067 52.4533 23.1933 49.9333 23.1933C49.28 23.1933 48.5333 23.24 47.7867 23.3333C48.6733 22.68 49.5133 21.9333 50.3067 21.14C52.08 19.3667 52.6867 18.0133 52.1267 17.0333C51.5667 16.1 50.0733 15.9133 47.6933 16.5667C46.76 16.8467 45.78 17.1733 44.8933 17.5467C47.2267 14.56 48.5333 11.7133 47.3667 10.5C46.2933 9.42667 43.8667 10.4533 41.16 12.3667C41.58 11.34 41.9533 10.3133 42.28 9.24C42.9333 6.81333 42.7467 5.32 41.8133 4.80667C40.5067 4.06 38.4067 5.64667 36.3533 8.16667C36.68 4.80667 36.3533 2.14667 34.9067 1.72667C33.6 1.35333 32.1533 3.03333 30.8467 5.6C30.2867 2.38 29.26 0 27.7667 0C26.18 0 25.1067 2.75333 24.5933 6.3C23.24 3.36 21.6067 1.30667 20.2067 1.68C18.6667 2.1 18.34 4.99333 18.76 8.58667C16.52 5.78667 14.28 3.96667 12.88 4.76C11.9467 5.32 11.76 6.81333 12.4133 9.19333C12.6933 10.2667 13.1133 11.34 13.5333 12.3667C10.8267 10.4067 8.30667 9.38 7.28 10.4533C6.25333 11.5267 7.37333 14.3267 9.56667 17.22C8.86667 16.94 8.12 16.7067 7.37333 16.52C4.94667 15.8667 3.45333 16.0533 2.94 16.9867C2.1 18.4333 4.2 20.9067 7.32667 23.2867C6.53333 23.1933 5.78667 23.1467 4.99333 23.1467C2.52 23.1467 1.07333 23.7067 0.793333 24.7333C0.466667 25.8533 1.72667 27.1133 3.73333 28.28C1.49333 28.8867 0 29.7267 0 30.94C0 33.2733 5.78667 34.44 11.5267 34.44C17.2667 34.44 23.0533 33.2267 23.0533 30.94C23.0533 30.8933 23.0533 30.8 23.0533 30.7533V30.7067C23.1467 30.0533 22.96 29.4 22.4933 28.98C22.68 28.84 22.82 28.7 22.9133 28.5133C23.1467 28.0933 23.1467 27.58 22.96 27.1133C23.1933 27.0667 23.4267 26.9267 23.6133 26.74C24.0333 26.32 24.1267 25.6667 23.94 24.8267C24.1267 24.78 24.2667 24.7333 24.4067 24.6867C24.7333 24.5 24.9667 24.1733 25.1067 23.8C25.34 23.8933 25.5733 23.94 25.8067 23.9867C25.9467 23.9867 26.04 23.9867 26.18 23.94C26.6933 23.7533 27.0667 23.38 27.2533 22.9133C27.44 22.96 27.58 23.0067 27.7667 23.0067H27.86C28.0467 23.4267 28.42 23.8 28.8867 23.94C29.0267 23.9867 29.12 23.9867 29.26 23.9867C29.4 23.9867 29.54 23.9867 29.68 23.94C29.82 24.2667 30.0067 24.5467 30.2867 24.6867C30.4267 24.78 30.5667 24.8267 30.7533 24.8267C30.5667 25.62 30.66 26.2733 31.08 26.74C31.36 27.02 31.7333 27.16 32.1067 27.16C31.9667 27.58 31.9667 28.0933 32.2 28.5133C32.2933 28.6533 32.3867 28.7933 32.5267 28.8867C31.9667 29.4933 31.7333 30.1 31.8733 30.7067C31.92 30.8 31.9667 30.94 32.0133 31.0333C32.1533 33.2733 37.8467 34.44 43.54 34.44C49.28 34.44 55.0667 33.2267 55.0667 30.94C55.0667 29.7733 53.5267 28.8867 51.2867 28.3267Z" fill="white" fill-opacity="0.8"/>
<path d="M43.54 33.4133C39.7133 33.4133 36.9133 32.9467 35.1867 32.34C35.5133 32.34 35.7933 32.3867 36.1667 32.3867C38.8267 32.2933 41.44 31.92 43.96 31.22C45.9667 30.7067 47.9267 30.0067 49.7933 29.12C52.5467 29.6333 53.9933 30.4733 53.9933 31.0333C54.04 31.8267 50.4467 33.4133 43.54 33.4133ZM31.8733 26.04C31.6867 25.8533 31.6867 25.4333 31.92 24.7333C32.8533 24.2667 33.6933 23.66 34.3933 22.8667C36.26 20.9533 37.8467 18.8067 39.1533 16.4733C39.5267 15.7733 39.9 15.12 40.2267 14.4667C43.0733 12.0867 45.2667 11.1067 46.2 11.1067C46.34 11.1067 46.5267 11.1533 46.62 11.2467C47.1333 11.76 46.1533 14.6067 42.6533 18.5267C41.9067 18.9 41.16 19.2733 40.4133 19.6933C38.08 21 35.9333 22.5867 34.02 24.4067C33.5067 24.92 33.04 25.48 32.6667 26.04C32.2467 26.18 32.0133 26.18 31.8733 26.04ZM37.66 16.8C36.54 18.7133 35.1867 20.5333 33.6 22.12C33.2733 22.4467 32.9933 22.7267 32.7133 22.9133C34.02 20.72 35.6533 18.7133 37.52 16.8933L37.66 16.8ZM30.8467 23.8C30.7533 23.7067 30.66 23.5667 30.6133 23.4267C31.3133 22.7733 31.92 22.0267 32.3867 21.1867C33.6467 18.8533 34.6733 16.38 35.3267 13.7667C35.6067 12.6 35.8867 11.4333 36.0733 10.3133C38.36 7.14 40.32 5.69333 41.1133 5.69333C41.2067 5.69333 41.2533 5.69333 41.3 5.74C41.58 5.88 41.86 6.72 41.2533 8.96C40.7867 10.64 40.1333 12.2733 39.34 13.86C38.4533 14.6067 37.6133 15.4 36.7733 16.1933C34.2067 18.76 32.0133 21.6533 31.1267 23.8467C30.9867 23.8467 30.94 23.8467 30.8467 23.8ZM29.1667 22.9133C29.0267 22.8667 28.8867 22.7267 28.84 22.5867C29.12 22.3067 29.3533 22.0267 29.54 21.6533C29.4933 22.0733 29.4467 22.4467 29.4467 22.8667C29.3533 22.9133 29.26 22.96 29.1667 22.9133ZM25.9 22.9133C25.76 22.96 25.5733 22.9133 25.2933 22.68C25.2467 21.84 25.1533 21.0467 24.92 20.2533C24.1733 17.6867 23.1 15.2133 21.7467 12.9267C21.2333 12.0867 20.72 11.2933 20.2067 10.5C19.32 5.69333 19.8333 2.94 20.5333 2.75333H20.6267C21.3267 2.75333 22.9133 4.66667 24.4067 8.54C24.2667 9.56667 24.2667 10.5467 24.2667 11.5267C24.2667 15.96 25.0133 20.44 26.4133 22.2133C26.2267 22.6333 26.0867 22.8667 25.9 22.9133ZM20.9533 13.86C22.1667 15.96 23.1467 18.2 23.8467 20.58C23.8933 20.8133 23.94 21 23.9867 21.2333C23.8467 21.0467 23.7533 20.86 23.6133 20.6267C22.4933 18.48 21.56 16.1933 20.9533 13.86ZM17.9667 16.1467C17.1733 15.3533 16.3333 14.56 15.4933 13.86C14.7 12.2733 14.0467 10.64 13.5333 8.91333C12.9267 6.67333 13.2533 5.83333 13.4867 5.69333C13.5333 5.64667 13.6267 5.64667 13.6733 5.64667C14.5133 5.64667 16.66 7.28 19.1333 10.92C19.32 11.8533 19.5067 12.7867 19.7867 13.72C20.44 16.2867 21.42 18.8067 22.7267 21.14C23.1467 21.8867 23.6133 22.54 24.1733 23.1467C24.1267 23.52 23.9867 23.7067 23.8933 23.7533C23.8 23.8 23.7067 23.8 23.6133 23.8C22.7267 21.6067 20.4867 18.7133 17.9667 16.1467ZM17.1733 16.94C18.9933 18.7133 20.58 20.6733 21.8867 22.8667C21.6533 22.68 21.42 22.4467 21.0933 22.1667C19.6 20.58 18.2933 18.8067 17.1733 16.94ZM14.7 19.74C13.72 19.18 12.6933 18.6667 11.76 18.2C8.54 14.4667 7.60667 11.76 8.12 11.2467C8.26 11.1533 8.4 11.1067 8.58667 11.1067C9.52 11.1067 11.76 12.0867 14.6533 14.5133C14.98 15.1667 15.3067 15.82 15.7267 16.4733C17.0333 18.8067 18.62 20.9533 20.44 22.8667C21.14 23.6133 21.98 24.22 22.8667 24.6867C23.1 25.3867 23.1 25.8067 22.9133 25.9933C22.82 26.0867 22.68 26.1333 22.54 26.1333C21.2333 24.1733 18.1067 21.7 14.7 19.74ZM1.12 30.9867C1.12 30.4733 2.52 29.6333 5.22667 29.12C7.09333 29.96 9.05333 30.66 11.0133 31.1733C13.5333 31.8733 16.1933 32.2933 18.8067 32.34C19.18 32.34 19.5533 32.34 19.9267 32.2933C18.2 32.9 15.3533 33.3667 11.5267 33.3667C4.71333 33.4133 1.12 31.8267 1.12 30.9867ZM1.86667 25.06C1.96 24.78 2.70667 24.2667 4.99333 24.2667H5.04C6.48667 24.2667 7.88667 24.4067 9.28667 24.6867C9.89333 25.1067 10.5467 25.48 11.1533 25.8533C12.2267 26.46 13.3467 27.0667 14.4667 27.58C13.4867 27.4867 12.5067 27.4867 11.5267 27.4867C9.47333 27.4867 7.37333 27.6267 5.36667 27.9533C2.84667 26.74 1.72667 25.5733 1.86667 25.06ZM19.6 28.1867C17.22 27.6267 14.8867 26.74 12.7867 25.48C15.1667 26.0867 17.4533 27.02 19.6 28.1867ZM11.2933 30.1467C9.94 29.7733 8.58667 29.3533 7.23333 28.84C8.63333 28.7 10.08 28.6067 11.5267 28.6067C17.64 28.6067 21.14 29.8667 21.84 30.7533C21.0467 31.4067 17.3133 31.7333 11.2933 30.1467ZM14 20.6267L14.14 20.72C17.3133 22.54 19.46 24.3133 20.72 25.6667C19.0867 24.92 16.7533 23.3333 14 20.6267ZM3.87333 17.5933C4.01333 17.3133 4.85333 17.0333 7.09333 17.64C8.44667 18.0133 9.75333 18.5267 11.06 19.0867C11.6667 19.7867 12.32 20.44 12.9733 21.14C16.0067 24.1733 19.5533 26.7867 21.84 27.16C22.0267 27.5333 22.0733 27.86 21.98 28C21.8867 28.0933 21.7933 28.1867 21.7 28.1867C21.2333 27.86 20.7667 27.5333 20.2533 27.2533C17.92 25.9467 15.4467 24.9667 12.8333 24.3133C11.76 24.0333 10.6867 23.8 9.66 23.6133C5.22667 20.72 3.5 18.2 3.87333 17.5933ZM27.7667 1.07333C28.42 1.07333 29.54 3.22 29.96 7.42C29.3533 8.86667 28.8867 10.4067 28.4667 11.9C28.0467 13.44 27.7667 14.98 27.5333 16.5667C27.3 14.98 27.02 13.44 26.6 11.9467C26.2733 10.7333 25.9 9.52 25.48 8.4C25.8533 3.59333 27.0667 1.07333 27.7667 1.07333ZM34.3933 12.8333C34.3467 13.0667 34.3 13.2533 34.2067 13.4867C33.6 15.96 32.6667 18.34 31.4533 20.6267C31.22 21.0467 30.94 21.4667 30.66 21.84C30.7067 21.42 30.8 21 30.94 20.58C31.6867 18.1067 32.7133 15.7733 34.02 13.5333C34.1133 13.3 34.2533 13.0667 34.3933 12.8333ZM29.54 12.2267C29.7267 11.48 29.96 10.78 30.1467 10.1267C30.1467 10.5933 30.1467 11.06 30.1467 11.5733C30.1467 16.7533 29.26 20.0667 28.4667 21.3733C28.2333 19.6 28.3733 16.4733 29.54 12.2267ZM26.6467 20.5333C25.9467 18.9 25.34 15.8667 25.34 11.5733C25.3867 11.8067 25.48 11.9933 25.5267 12.2267C26.5067 15.8667 26.74 18.6667 26.6467 20.5333ZM34.4867 2.75333H34.58C35.2333 2.94 35.7467 5.46 35 9.84667C34.3 10.8267 33.6467 11.9 32.9933 12.9733C32.1533 14.3733 31.4533 15.82 30.8467 17.3133C31.1267 15.4 31.3133 13.44 31.3133 11.48C31.3133 10.1267 31.2667 8.82 31.1267 7.56C32.48 4.34 33.8333 2.75333 34.4867 2.75333ZM34.86 25.2467C36.4467 23.7533 38.1733 22.4 40.04 21.28C38.4533 22.82 36.7267 24.1267 34.86 25.2467ZM48.02 17.64C48.72 17.4533 49.4667 17.3133 50.2133 17.3133C50.8667 17.3133 51.1933 17.4533 51.24 17.5933C51.38 17.8733 51.24 18.7133 49.6067 20.3467C48.3467 21.56 46.9467 22.68 45.5 23.6133C44.4267 23.8 43.3067 24.0333 42.14 24.36C38.64 25.2933 35.28 26.6933 33.3667 28.1867C33.2733 28.14 33.2267 28.0933 33.18 28.0467C33.0867 27.9067 33.1333 27.58 33.3667 27.0667C35.6533 26.4133 38.92 23.9867 41.72 21.14C42.28 20.58 42.7933 20.02 43.3067 19.46C44.8 18.6667 46.3867 18.06 48.02 17.64ZM33.2267 30.7533C33.74 29.8667 37.2867 28.56 43.5867 28.56C44.9867 28.56 46.3867 28.6067 47.7867 28.7933C46.4333 29.3067 45.08 29.7733 43.7267 30.1467C37.8467 31.6867 34.16 31.4067 33.2267 30.7533ZM35.28 28.2333C37.52 27.02 39.9 26.04 42.42 25.4333H42.5133C40.5533 26.5067 38.5 27.3933 36.4 28C35.98 28.0933 35.6067 28.1867 35.28 28.2333ZM49.9333 24.3133C52.2667 24.3133 53.0133 24.78 53.1067 25.1067C53.2 25.4333 52.78 26.18 50.82 27.3467C50.4467 27.5333 50.0733 27.7667 49.6533 27.9533C47.6467 27.6267 45.64 27.44 43.5867 27.4867C42.6067 27.4867 41.6267 27.5333 40.6933 27.58C41.7667 27.1133 42.8867 26.5067 44.0067 25.8533C44.66 25.48 45.3133 25.06 45.9667 24.6867C47.2267 24.4533 48.58 24.3133 49.9333 24.3133ZM51.2867 28.3267L51.3333 28.28C53.48 27.02 54.4133 25.8533 54.1333 24.78C53.8533 23.7067 52.4533 23.1933 49.9333 23.1933C49.28 23.1933 48.5333 23.24 47.7867 23.3333C48.6733 22.68 49.5133 21.9333 50.3067 21.14C52.08 19.3667 52.6867 18.0133 52.1267 17.0333C51.5667 16.1 50.0733 15.9133 47.6933 16.5667C46.76 16.8467 45.78 17.1733 44.8933 17.5467C47.2267 14.56 48.5333 11.7133 47.3667 10.5C46.2933 9.42667 43.8667 10.4533 41.16 12.3667C41.58 11.34 41.9533 10.3133 42.28 9.24C42.9333 6.81333 42.7467 5.32 41.8133 4.80667C40.5067 4.06 38.4067 5.64667 36.3533 8.16667C36.68 4.80667 36.3533 2.14667 34.9067 1.72667C33.6 1.35333 32.1533 3.03333 30.8467 5.6C30.2867 2.38 29.26 0 27.7667 0C26.18 0 25.1067 2.75333 24.5933 6.3C23.24 3.36 21.6067 1.30667 20.2067 1.68C18.6667 2.1 18.34 4.99333 18.76 8.58667C16.52 5.78667 14.28 3.96667 12.88 4.76C11.9467 5.32 11.76 6.81333 12.4133 9.19333C12.6933 10.2667 13.1133 11.34 13.5333 12.3667C10.8267 10.4067 8.30667 9.38 7.28 10.4533C6.25333 11.5267 7.37333 14.3267 9.56667 17.22C8.86667 16.94 8.12 16.7067 7.37333 16.52C4.94667 15.8667 3.45333 16.0533 2.94 16.9867C2.1 18.4333 4.2 20.9067 7.32667 23.2867C6.53333 23.1933 5.78667 23.1467 4.99333 23.1467C2.52 23.1467 1.07333 23.7067 0.793333 24.7333C0.466667 25.8533 1.72667 27.1133 3.73333 28.28C1.49333 28.8867 0 29.7267 0 30.94C0 33.2733 5.78667 34.44 11.5267 34.44C17.2667 34.44 23.0533 33.2267 23.0533 30.94C23.0533 30.8933 23.0533 30.8 23.0533 30.7533V30.7067C23.1467 30.0533 22.96 29.4 22.4933 28.98C22.68 28.84 22.82 28.7 22.9133 28.5133C23.1467 28.0933 23.1467 27.58 22.96 27.1133C23.1933 27.0667 23.4267 26.9267 23.6133 26.74C24.0333 26.32 24.1267 25.6667 23.94 24.8267C24.1267 24.78 24.2667 24.7333 24.4067 24.6867C24.7333 24.5 24.9667 24.1733 25.1067 23.8C25.34 23.8933 25.5733 23.94 25.8067 23.9867C25.9467 23.9867 26.04 23.9867 26.18 23.94C26.6933 23.7533 27.0667 23.38 27.2533 22.9133C27.44 22.96 27.58 23.0067 27.7667 23.0067H27.86C28.0467 23.4267 28.42 23.8 28.8867 23.94C29.0267 23.9867 29.12 23.9867 29.26 23.9867C29.4 23.9867 29.54 23.9867 29.68 23.94C29.82 24.2667 30.0067 24.5467 30.2867 24.6867C30.4267 24.78 30.5667 24.8267 30.7533 24.8267C30.5667 25.62 30.66 26.2733 31.08 26.74C31.36 27.02 31.7333 27.16 32.1067 27.16C31.9667 27.58 31.9667 28.0933 32.2 28.5133C32.2933 28.6533 32.3867 28.7933 32.5267 28.8867C31.9667 29.4933 31.7333 30.1 31.8733 30.7067C31.92 30.8 31.9667 30.94 32.0133 31.0333C32.1533 33.2733 37.8467 34.44 43.54 34.44C49.28 34.44 55.0667 33.2267 55.0667 30.94C55.0667 29.7733 53.5267 28.8867 51.2867 28.3267Z" stroke="black" stroke-width="0.233333" mask="url(#path-1-inside-1_3012_21876)"/>
</svg>
