<svg width="56" height="56" viewBox="0 0 56 56" fill="none" xmlns="http://www.w3.org/2000/svg">
<path d="M35.2188 45.5C35.2188 49.3664 32.9602 52.5 29.0938 52.5H14.6562C10.7898 52.5 8.53125 49.3664 8.53125 45.5M36.75 36.75C38.6827 36.75 40.25 38.7089 40.25 41.125C40.25 43.5411 38.6827 45.5 36.75 45.5H7C5.06734 45.5 3.5 43.5411 3.5 41.125C3.5 38.7089 5.06734 36.75 7 36.75" stroke="black" stroke-width="1.75" stroke-miterlimit="10" stroke-linecap="round"/>
<path d="M35.2188 45.5C35.2188 49.3664 32.9602 52.5 29.0938 52.5H14.6562C10.7898 52.5 8.53125 49.3664 8.53125 45.5M36.75 36.75C38.6827 36.75 40.25 38.7089 40.25 41.125C40.25 43.5411 38.6827 45.5 36.75 45.5H7C5.06734 45.5 3.5 43.5411 3.5 41.125C3.5 38.7089 5.06734 36.75 7 36.75" stroke="white" stroke-opacity="0.8" stroke-width="1.75" stroke-miterlimit="10" stroke-linecap="round"/>
<path d="M7 30.1875V30.1634C7 24.1478 11.9219 21 17.9375 21H25.8125C31.8281 21 36.75 24.1719 36.75 30.1875V30.1634M26.3594 12.25L27.1731 19.2467M37.625 36.75H19.612C19.3803 36.7501 19.158 36.8422 18.9941 37.0059L16.0595 39.9405C16.0189 39.9811 15.9706 40.0134 15.9175 40.0354C15.8644 40.0574 15.8075 40.0688 15.75 40.0688C15.6925 40.0688 15.6356 40.0574 15.5825 40.0354C15.5294 40.0134 15.4811 39.9811 15.4405 39.9405L12.5059 37.0059C12.342 36.8422 12.1197 36.7501 11.888 36.75H6.125C5.42881 36.75 4.76113 36.4734 4.26884 35.9812C3.77656 35.4889 3.5 34.8212 3.5 34.125C3.5 33.4288 3.77656 32.7611 4.26884 32.2688C4.76113 31.7766 5.42881 31.5 6.125 31.5H37.625C38.3212 31.5 38.9889 31.7766 39.4812 32.2688C39.9734 32.7611 40.25 33.4288 40.25 34.125C40.25 34.8212 39.9734 35.4889 39.4812 35.9812C38.9889 36.4734 38.3212 36.75 37.625 36.75Z" stroke="black" stroke-width="1.75" stroke-miterlimit="10" stroke-linecap="round"/>
<path d="M7 30.1875V30.1634C7 24.1478 11.9219 21 17.9375 21H25.8125C31.8281 21 36.75 24.1719 36.75 30.1875V30.1634M26.3594 12.25L27.1731 19.2467M37.625 36.75H19.612C19.3803 36.7501 19.158 36.8422 18.9941 37.0059L16.0595 39.9405C16.0189 39.9811 15.9706 40.0134 15.9175 40.0354C15.8644 40.0574 15.8075 40.0688 15.75 40.0688C15.6925 40.0688 15.6356 40.0574 15.5825 40.0354C15.5294 40.0134 15.4811 39.9811 15.4405 39.9405L12.5059 37.0059C12.342 36.8422 12.1197 36.7501 11.888 36.75H6.125C5.42881 36.75 4.76113 36.4734 4.26884 35.9812C3.77656 35.4889 3.5 34.8212 3.5 34.125C3.5 33.4288 3.77656 32.7611 4.26884 32.2688C4.76113 31.7766 5.42881 31.5 6.125 31.5H37.625C38.3212 31.5 38.9889 31.7766 39.4812 32.2688C39.9734 32.7611 40.25 33.4288 40.25 34.125C40.25 34.8212 39.9734 35.4889 39.4812 35.9812C38.9889 36.4734 38.3212 36.75 37.625 36.75Z" stroke="white" stroke-opacity="0.8" stroke-width="1.75" stroke-miterlimit="10" stroke-linecap="round"/>
<path d="M28 52.5H43.237C44.12 52.5 44.9704 52.1662 45.6176 51.5656C46.2649 50.965 46.6612 50.1419 46.7272 49.2614L50.6406 12.25" stroke="black" stroke-width="1.75" stroke-miterlimit="10" stroke-linecap="round"/>
<path d="M28 52.5H43.237C44.12 52.5 44.9704 52.1662 45.6176 51.5656C46.2649 50.965 46.6612 50.1419 46.7272 49.2614L50.6406 12.25" stroke="white" stroke-opacity="0.8" stroke-width="1.75" stroke-miterlimit="10" stroke-linecap="round"/>
<path d="M40.25 12.25L42 5.25L47.1406 3.5" stroke="black" stroke-width="1.75" stroke-linecap="round" stroke-linejoin="round"/>
<path d="M40.25 12.25L42 5.25L47.1406 3.5" stroke="white" stroke-opacity="0.8" stroke-width="1.75" stroke-linecap="round" stroke-linejoin="round"/>
<path d="M24.5 12.25H52.5" stroke="black" stroke-width="1.75" stroke-miterlimit="10" stroke-linecap="round"/>
<path d="M24.5 12.25H52.5" stroke="white" stroke-opacity="0.8" stroke-width="1.75" stroke-miterlimit="10" stroke-linecap="round"/>
</svg>
