<svg width="32" height="32" viewBox="0 0 32 32" fill="none" xmlns="http://www.w3.org/2000/svg">
<path d="M27.2009 12.0459L27.201 12.0459C27.4066 12.2203 27.5718 12.4372 27.6851 12.6818C27.7984 12.9264 27.8571 13.1928 27.8571 13.4623V25.9996C27.8571 26.4922 27.6615 26.9646 27.3132 27.3128C26.9649 27.6611 26.4925 27.8568 26 27.8568H18.3333C18.106 27.8568 17.888 27.7665 17.7272 27.6057C17.5665 27.445 17.4762 27.227 17.4762 26.9996V18.6663V18.5234H17.3333H14.6667H14.5238V18.6663V26.9996C14.5238 27.227 14.4335 27.445 14.2728 27.6057C14.112 27.7665 13.894 27.8568 13.6667 27.8568H6C5.50746 27.8568 5.03508 27.6611 4.6868 27.3128C4.33852 26.9646 4.14286 26.4922 4.14286 25.9996V13.4623C4.14286 12.9176 4.38306 12.3988 4.79907 12.0459L4.79909 12.0459L14.799 3.56194C15.1346 3.2775 15.5601 3.12137 16 3.12137C16.4398 3.12137 16.8654 3.27748 17.2009 3.5619C17.2009 3.56192 17.2009 3.56193 17.201 3.56194L27.2009 12.0459ZM16.0924 4.86937L16 4.79096L15.9076 4.86937L5.90758 13.3534L5.85714 13.3962V13.4623V25.9996V26.1425H6H12.6667H12.8095V25.9996V17.6663C12.8095 17.439 12.8998 17.221 13.0606 17.0602C13.2213 16.8995 13.4393 16.8092 13.6667 16.8092H18.3333C18.5607 16.8092 18.7787 16.8995 18.9394 17.0602C19.1002 17.221 19.1905 17.439 19.1905 17.6663V25.9996V26.1425H19.3333H26H26.1429V25.9996V13.4623V13.3962L26.0924 13.3534L16.0924 4.86937Z" fill="white" stroke="black" stroke-width="0.285714"/>
</svg>
