<svg width="56" height="54" viewBox="0 0 56 54" fill="none" xmlns="http://www.w3.org/2000/svg">
<g clip-path="url(#clip0_3012_21811)">
<path d="M44.771 36.5213L44.702 36.3382L44.6331 36.5213L43.2203 40.2725L39.469 41.6853L39.286 41.7543L39.469 41.8232L43.2203 43.236L44.6331 46.9873L44.702 47.1704L44.771 46.9873L46.1838 43.236L49.935 41.8232L50.1181 41.7543L49.935 41.6853L46.1838 40.2725L44.771 36.5213ZM41.7805 38.8759L41.8119 38.8641L41.8237 38.8328L44.702 31.1571L47.5804 38.8328L47.5922 38.8641L47.6235 38.8759L55.2992 41.7543L47.6235 44.6327L47.5922 44.6444L47.5804 44.6758L44.702 52.3514L41.8237 44.6758L41.8119 44.6444L41.7805 44.6327L34.1049 41.7543L41.7805 38.8759Z" fill="black"/>
<path d="M44.771 36.5213L44.702 36.3382L44.6331 36.5213L43.2203 40.2725L39.469 41.6853L39.286 41.7543L39.469 41.8232L43.2203 43.236L44.6331 46.9873L44.702 47.1704L44.771 46.9873L46.1838 43.236L49.935 41.8232L50.1181 41.7543L49.935 41.6853L46.1838 40.2725L44.771 36.5213ZM41.7805 38.8759L41.8119 38.8641L41.8237 38.8328L44.702 31.1571L47.5804 38.8328L47.5922 38.8641L47.6235 38.8759L55.2992 41.7543L47.6235 44.6327L47.5922 44.6444L47.5804 44.6758L44.702 52.3514L41.8237 44.6758L41.8119 44.6444L41.7805 44.6327L34.1049 41.7543L41.7805 38.8759Z" fill="white" fill-opacity="0.8"/>
<path d="M44.771 36.5213L44.702 36.3382L44.6331 36.5213L43.2203 40.2725L39.469 41.6853L39.286 41.7543L39.469 41.8232L43.2203 43.236L44.6331 46.9873L44.702 47.1704L44.771 46.9873L46.1838 43.236L49.935 41.8232L50.1181 41.7543L49.935 41.6853L46.1838 40.2725L44.771 36.5213ZM41.7805 38.8759L41.8119 38.8641L41.8237 38.8328L44.702 31.1571L47.5804 38.8328L47.5922 38.8641L47.6235 38.8759L55.2992 41.7543L47.6235 44.6327L47.5922 44.6444L47.5804 44.6758L44.702 52.3514L41.8237 44.6758L41.8119 44.6444L41.7805 44.6327L34.1049 41.7543L41.7805 38.8759Z" stroke="black" stroke-width="0.147368"/>
<path d="M22.0967 11.0143L21.614 9.73267L21.1313 11.0143L18.3645 18.3606L11.0182 21.1274L9.73658 21.6101L11.0182 22.0928L18.3645 24.8596L21.1313 32.206L21.614 33.4876L22.0967 32.206L24.8635 24.8596L32.2099 22.0928L33.4915 21.6101L32.2099 21.1274L24.8635 18.3606L22.0967 11.0143ZM15.9004 16.1983L16.1199 16.116L16.2022 15.8965L21.614 1.46506L27.0258 15.8965L27.1081 16.116L27.3277 16.1983L41.7591 21.6101L27.3277 27.0219L27.1081 27.1042L27.0258 27.3238L21.614 41.7552L16.2022 27.3238L16.1199 27.1042L15.9004 27.0219L1.46897 21.6101L15.9004 16.1983Z" fill="black"/>
<path d="M22.0967 11.0143L21.614 9.73267L21.1313 11.0143L18.3645 18.3606L11.0182 21.1274L9.73658 21.6101L11.0182 22.0928L18.3645 24.8596L21.1313 32.206L21.614 33.4876L22.0967 32.206L24.8635 24.8596L32.2099 22.0928L33.4915 21.6101L32.2099 21.1274L24.8635 18.3606L22.0967 11.0143ZM15.9004 16.1983L16.1199 16.116L16.2022 15.8965L21.614 1.46506L27.0258 15.8965L27.1081 16.116L27.3277 16.1983L41.7591 21.6101L27.3277 27.0219L27.1081 27.1042L27.0258 27.3238L21.614 41.7552L16.2022 27.3238L16.1199 27.1042L15.9004 27.0219L1.46897 21.6101L15.9004 16.1983Z" fill="white" fill-opacity="0.8"/>
<path d="M22.0967 11.0143L21.614 9.73267L21.1313 11.0143L18.3645 18.3606L11.0182 21.1274L9.73658 21.6101L11.0182 22.0928L18.3645 24.8596L21.1313 32.206L21.614 33.4876L22.0967 32.206L24.8635 24.8596L32.2099 22.0928L33.4915 21.6101L32.2099 21.1274L24.8635 18.3606L22.0967 11.0143ZM15.9004 16.1983L16.1199 16.116L16.2022 15.8965L21.614 1.46506L27.0258 15.8965L27.1081 16.116L27.3277 16.1983L41.7591 21.6101L27.3277 27.0219L27.1081 27.1042L27.0258 27.3238L21.614 41.7552L16.2022 27.3238L16.1199 27.1042L15.9004 27.0219L1.46897 21.6101L15.9004 16.1983Z" stroke="black" stroke-width="1.03158"/>
</g>
<defs>
<clipPath id="clip0_3012_21811">
<rect width="56" height="53.0526" fill="white"/>
</clipPath>
</defs>
</svg>
