<svg width="70" height="56" viewBox="0 0 70 56" fill="none" xmlns="http://www.w3.org/2000/svg">
<path d="M14.3898 34.4512C11.9406 35.1074 9.45739 33.6773 8.80255 31.2334L5.83937 20.1745C5.18452 17.7305 6.62 15.2504 9.06918 14.5941L37.3573 7.01425C39.8065 6.35798 42.2897 7.78813 42.9446 10.2321L43.4193 12.0039L43.1011 12.2857C42.9501 12.4571 42.7216 12.5838 42.5543 12.6941L42.3706 12.7434C40.8398 13.1535 39.9469 14.9644 40.438 16.7974C40.9292 18.6303 42.4733 19.9847 43.8859 19.8681C44.2533 19.7697 44.6534 19.7935 45.025 19.9558C45.413 20.1793 45.7113 20.5577 45.8259 20.9854L45.8914 21.2298C46.5462 23.6738 45.1108 26.1539 42.7392 26.8549L14.3898 34.4512ZM9.42935 15.9383C7.71492 16.3977 6.7444 18.1639 7.18642 19.8135L10.1332 30.8113C10.5916 32.5221 12.3601 33.4889 14.0133 33.0459L42.3014 25.466C44.0158 25.0067 45.0027 23.3015 44.5443 21.5908L44.4788 21.3464C44.4625 21.2853 44.4461 21.2242 44.3685 21.1795C44.3073 21.1959 44.2909 21.1348 44.2297 21.1512L44.046 21.2004L43.9235 21.2332C41.9435 21.4364 39.7458 19.6023 39.091 17.1583C38.4361 14.7144 39.6552 12.1612 41.8267 11.4484L41.5975 10.593C41.1391 8.88226 39.4319 7.89903 37.7175 8.35842L9.42935 15.9383Z" fill="black"/>
<path d="M14.3898 34.4512C11.9406 35.1074 9.45739 33.6773 8.80255 31.2334L5.83937 20.1745C5.18452 17.7305 6.62 15.2504 9.06918 14.5941L37.3573 7.01425C39.8065 6.35798 42.2897 7.78813 42.9446 10.2321L43.4193 12.0039L43.1011 12.2857C42.9501 12.4571 42.7216 12.5838 42.5543 12.6941L42.3706 12.7434C40.8398 13.1535 39.9469 14.9644 40.438 16.7974C40.9292 18.6303 42.4733 19.9847 43.8859 19.8681C44.2533 19.7697 44.6534 19.7935 45.025 19.9558C45.413 20.1793 45.7113 20.5577 45.8259 20.9854L45.8914 21.2298C46.5462 23.6738 45.1108 26.1539 42.7392 26.8549L14.3898 34.4512ZM9.42935 15.9383C7.71492 16.3977 6.7444 18.1639 7.18642 19.8135L10.1332 30.8113C10.5916 32.5221 12.3601 33.4889 14.0133 33.0459L42.3014 25.466C44.0158 25.0067 45.0027 23.3015 44.5443 21.5908L44.4788 21.3464C44.4625 21.2853 44.4461 21.2242 44.3685 21.1795C44.3073 21.1959 44.2909 21.1348 44.2297 21.1512L44.046 21.2004L43.9235 21.2332C41.9435 21.4364 39.7458 19.6023 39.091 17.1583C38.4361 14.7144 39.6552 12.1612 41.8267 11.4484L41.5975 10.593C41.1391 8.88226 39.4319 7.89903 37.7175 8.35842L9.42935 15.9383Z" fill="white" fill-opacity="0.8"/>
<path d="M29.9631 11.7414L28.6772 12.0859L29.021 13.369L30.3069 13.0245L29.9631 11.7414Z" fill="black"/>
<path d="M29.9631 11.7414L28.6772 12.0859L29.021 13.369L30.3069 13.0245L29.9631 11.7414Z" fill="white" fill-opacity="0.8"/>
<path d="M30.6681 14.3723L29.3823 14.7168L29.7261 15.9999L31.0119 15.6553L30.6681 14.3723Z" fill="black"/>
<path d="M30.6681 14.3723L29.3823 14.7168L29.7261 15.9999L31.0119 15.6553L30.6681 14.3723Z" fill="white" fill-opacity="0.8"/>
<path d="M31.3708 16.9953L30.085 17.3398L30.4288 18.6229L31.7146 18.2784L31.3708 16.9953Z" fill="black"/>
<path d="M31.3708 16.9953L30.085 17.3398L30.4288 18.6229L31.7146 18.2784L31.3708 16.9953Z" fill="white" fill-opacity="0.8"/>
<path d="M32.0754 19.6281L30.7896 19.9727L31.1333 21.2557L32.4192 20.9112L32.0754 19.6281Z" fill="black"/>
<path d="M32.0754 19.6281L30.7896 19.9727L31.1333 21.2557L32.4192 20.9112L32.0754 19.6281Z" fill="white" fill-opacity="0.8"/>
<path d="M32.779 22.2531L31.4932 22.5977L31.837 23.8807L33.1228 23.5362L32.779 22.2531Z" fill="black"/>
<path d="M32.779 22.2531L31.4932 22.5977L31.837 23.8807L33.1228 23.5362L32.779 22.2531Z" fill="white" fill-opacity="0.8"/>
<path d="M33.4831 24.8801L32.1973 25.2246L32.5411 26.5077L33.8269 26.1631L33.4831 24.8801Z" fill="black"/>
<path d="M33.4831 24.8801L32.1973 25.2246L32.5411 26.5077L33.8269 26.1631L33.4831 24.8801Z" fill="white" fill-opacity="0.8"/>
<path d="M13.7679 43.3914C11.6249 43.9656 9.37873 42.9304 8.43836 40.8904L3.6874 30.507C2.62032 28.239 3.60656 25.5518 5.87992 24.4842L8.04719 23.5106L8.40736 24.8547L6.485 25.7628C4.89729 26.4501 4.15957 28.3504 4.90774 29.9181L9.6587 40.3014C10.2965 41.7022 11.877 42.4574 13.3465 42.0636C13.5302 42.0144 13.7139 41.9652 13.8812 41.8549L40.525 29.6078C41.7005 29.0963 42.4346 27.9173 42.3521 26.6297L42.3194 26.5075L43.6664 26.1466L43.7156 26.3299C43.9005 28.2449 42.8239 30.105 41.0689 30.9027L14.4251 43.1498C14.2578 43.2602 14.0129 43.3258 13.7679 43.3914Z" fill="black"/>
<path d="M13.7679 43.3914C11.6249 43.9656 9.37873 42.9304 8.43836 40.8904L3.6874 30.507C2.62032 28.239 3.60656 25.5518 5.87992 24.4842L8.04719 23.5106L8.40736 24.8547L6.485 25.7628C4.89729 26.4501 4.15957 28.3504 4.90774 29.9181L9.6587 40.3014C10.2965 41.7022 11.877 42.4574 13.3465 42.0636C13.5302 42.0144 13.7139 41.9652 13.8812 41.8549L40.525 29.6078C41.7005 29.0963 42.4346 27.9173 42.3521 26.6297L42.3194 26.5075L43.6664 26.1466L43.7156 26.3299C43.9005 28.2449 42.8239 30.105 41.0689 30.9027L14.4251 43.1498C14.2578 43.2602 14.0129 43.3258 13.7679 43.3914Z" fill="white" fill-opacity="0.8"/>
<path d="M30.4452 30.1904L29.2812 30.8359L29.9267 31.9971L31.0907 31.3515L30.4452 30.1904Z" fill="black"/>
<path d="M30.4452 30.1904L29.2812 30.8359L29.9267 31.9971L31.0907 31.3515L30.4452 30.1904Z" fill="white" fill-opacity="0.8"/>
<path d="M31.7509 32.6025L30.5869 33.248L31.2324 34.4092L32.3963 33.7637L31.7509 32.6025Z" fill="black"/>
<path d="M31.7509 32.6025L30.5869 33.248L31.2324 34.4092L32.3963 33.7637L31.7509 32.6025Z" fill="white" fill-opacity="0.8"/>
<g clip-path="url(#clip0_3012_21834)">
<g filter="url(#filter0_d_3012_21834)">
<path d="M61.5006 30.6682C64.8005 33.9681 64.586 38.5823 61.6073 41.561C59.1863 43.982 55.9487 44.6513 53.251 43.3176M50.5012 41.6677C47.2014 38.3679 47.4158 33.7536 50.395 30.7744C52.8155 28.354 56.0521 27.6858 58.7508 29.0183" stroke="black" stroke-width="1.75" stroke-linecap="round" stroke-linejoin="round" shape-rendering="crispEdges"/>
<path d="M61.5006 30.6682C64.8005 33.9681 64.586 38.5823 61.6073 41.561C59.1863 43.982 55.9487 44.6513 53.251 43.3176M50.5012 41.6677C47.2014 38.3679 47.4158 33.7536 50.395 30.7744C52.8155 28.354 56.0521 27.6858 58.7508 29.0183" stroke="white" stroke-opacity="0.8" stroke-width="1.75" stroke-linecap="round" stroke-linejoin="round" shape-rendering="crispEdges"/>
</g>
<g filter="url(#filter1_d_3012_21834)">
<path d="M56.0006 41.6674L53.2507 43.3173L54.9006 46.0671M56.0006 30.6679L58.7504 29.018L57.1005 26.2681" stroke="black" stroke-width="1.75" stroke-linecap="round" stroke-linejoin="round" shape-rendering="crispEdges"/>
<path d="M56.0006 41.6674L53.2507 43.3173L54.9006 46.0671M56.0006 30.6679L58.7504 29.018L57.1005 26.2681" stroke="white" stroke-opacity="0.8" stroke-width="1.75" stroke-linecap="round" stroke-linejoin="round" shape-rendering="crispEdges"/>
</g>
</g>
<defs>
<filter id="filter0_d_3012_21834" x="33.2183" y="27.4668" width="31.5654" height="90.9023" filterUnits="userSpaceOnUse" color-interpolation-filters="sRGB">
<feFlood flood-opacity="0" result="BackgroundImageFix"/>
<feColorMatrix in="SourceAlpha" type="matrix" values="0 0 0 0 0 0 0 0 0 0 0 0 0 0 0 0 0 0 127 0" result="hardAlpha"/>
<feOffset dx="-14" dy="73.5"/>
<feComposite in2="hardAlpha" operator="out"/>
<feColorMatrix type="matrix" values="0 0 0 0 0 0 0 0 0 0 0 0 0 0 0 0 0 0 1 0"/>
<feBlend mode="normal" in2="BackgroundImageFix" result="effect1_dropShadow_3012_21834"/>
<feBlend mode="normal" in="SourceGraphic" in2="effect1_dropShadow_3012_21834" result="shape"/>
</filter>
<filter id="filter1_d_3012_21834" x="38.3755" y="25.3926" width="21.25" height="95.0488" filterUnits="userSpaceOnUse" color-interpolation-filters="sRGB">
<feFlood flood-opacity="0" result="BackgroundImageFix"/>
<feColorMatrix in="SourceAlpha" type="matrix" values="0 0 0 0 0 0 0 0 0 0 0 0 0 0 0 0 0 0 127 0" result="hardAlpha"/>
<feOffset dx="-14" dy="73.5"/>
<feComposite in2="hardAlpha" operator="out"/>
<feColorMatrix type="matrix" values="0 0 0 0 0 0 0 0 0 0 0 0 0 0 0 0 0 0 1 0"/>
<feBlend mode="normal" in2="BackgroundImageFix" result="effect1_dropShadow_3012_21834"/>
<feBlend mode="normal" in="SourceGraphic" in2="effect1_dropShadow_3012_21834" result="shape"/>
</filter>
<clipPath id="clip0_3012_21834">
<rect width="18.6667" height="18.6667" fill="white" transform="translate(42.8013 36.166) rotate(-45)"/>
</clipPath>
</defs>
</svg>
