<svg width="30" height="32" viewBox="0 0 30 32" fill="none" xmlns="http://www.w3.org/2000/svg">
<g opacity="0.8">
<path d="M15.8958 3.22782C15.8131 3.06089 15.6853 2.92038 15.527 2.82215C15.3687 2.72392 15.1861 2.67188 14.9998 2.67188C14.8135 2.67188 14.6309 2.72392 14.4726 2.82215C14.3143 2.92038 14.1865 3.06089 14.1038 3.22782L10.0098 11.5218L0.855802 12.8518C0.671102 12.8786 0.497594 12.9566 0.354907 13.0769C0.21222 13.1972 0.106049 13.3551 0.048404 13.5326C-0.00924059 13.7101 -0.0160577 13.9002 0.0287239 14.0814C0.0735055 14.2626 0.168099 14.4276 0.301802 14.5578L6.9258 21.0138L5.3618 30.1318C5.33043 30.3156 5.35104 30.5045 5.42133 30.6771C5.49161 30.8498 5.60877 30.9994 5.75956 31.109C5.91036 31.2186 6.0888 31.2839 6.27473 31.2975C6.46066 31.311 6.64669 31.2724 6.8118 31.1858L14.9998 26.8798L23.1878 31.1858C23.3529 31.2724 23.5389 31.311 23.7249 31.2975C23.9108 31.2839 24.0892 31.2186 24.24 31.109C24.3908 30.9994 24.508 30.8498 24.5783 30.6771C24.6486 30.5045 24.6692 30.3156 24.6378 30.1318L23.0738 21.0118L29.6978 14.5578C29.8315 14.4276 29.9261 14.2626 29.9709 14.0814C30.0157 13.9002 30.0088 13.7101 29.9512 13.5326C29.8936 13.3551 29.7874 13.1972 29.6447 13.0769C29.502 12.9566 29.3285 12.8786 29.1438 12.8518L19.9898 11.5218L15.8958 3.22782Z" fill="#C0A991"/>
<path d="M10.4902 11.7589L14.5838 3.46571C14.5838 3.46562 14.5839 3.46554 14.5839 3.46545C14.6223 3.38806 14.6816 3.32292 14.755 3.27736C14.8285 3.23175 14.9133 3.20759 14.9998 3.20759C15.0863 3.20759 15.1711 3.23175 15.2446 3.27736C15.318 3.32292 15.3773 3.38806 15.4157 3.46545C15.4157 3.46554 15.4158 3.46562 15.4158 3.46571L19.5094 11.7589L19.6341 12.0115L19.9128 12.052L29.0668 13.382L29.0668 13.382C29.1526 13.3944 29.2331 13.4306 29.2994 13.4865C29.3656 13.5423 29.4149 13.6156 29.4417 13.698C29.4684 13.7805 29.4716 13.8687 29.4508 13.9528C29.43 14.037 29.3861 14.1136 29.324 14.174L29.324 14.1741L22.7 20.6281L22.4982 20.8247L22.5458 21.1024L24.1097 30.222C24.1243 30.3073 24.1147 30.395 24.0821 30.4752C24.0495 30.5553 23.9951 30.6248 23.9251 30.6757C23.855 30.7266 23.7722 30.7569 23.6859 30.7632C23.5996 30.7695 23.5133 30.7515 23.4366 30.7114C23.4366 30.7114 23.4366 30.7114 23.4365 30.7113L15.2492 26.4057L14.9998 26.2745L14.7505 26.4057L6.56309 30.7113C6.56305 30.7114 6.56301 30.7114 6.56297 30.7114C6.48634 30.7515 6.40002 30.7695 6.31374 30.7632C6.22741 30.7569 6.14456 30.7266 6.07455 30.6757C6.00454 30.6248 5.95014 30.5553 5.91751 30.4752C5.88489 30.395 5.87531 30.3074 5.88986 30.2221C5.88987 30.222 5.88987 30.222 5.88987 30.222L7.45381 21.1044L7.50142 20.8268L7.29971 20.6302L0.675713 14.1742L0.675575 14.174C0.613498 14.1136 0.56958 14.037 0.548789 13.9528L0.0289637 14.0813L0.548789 13.9528C0.527997 13.8687 0.531162 13.7805 0.557926 13.698C0.584689 13.6156 0.633984 13.5423 0.700231 13.4865C0.766477 13.4306 0.847035 13.3944 0.932791 13.382L0.932828 13.382L10.0868 12.052L10.3655 12.0115L10.4902 11.7589Z" stroke="black" stroke-opacity="0.4" stroke-width="1.07143"/>
<path d="M10.4902 11.7589L14.5838 3.46571C14.5838 3.46562 14.5839 3.46554 14.5839 3.46545C14.6223 3.38806 14.6816 3.32292 14.755 3.27736C14.8285 3.23175 14.9133 3.20759 14.9998 3.20759C15.0863 3.20759 15.1711 3.23175 15.2446 3.27736C15.318 3.32292 15.3773 3.38806 15.4157 3.46545C15.4157 3.46554 15.4158 3.46562 15.4158 3.46571L19.5094 11.7589L19.6341 12.0115L19.9128 12.052L29.0668 13.382L29.0668 13.382C29.1526 13.3944 29.2331 13.4306 29.2994 13.4865C29.3656 13.5423 29.4149 13.6156 29.4417 13.698C29.4684 13.7805 29.4716 13.8687 29.4508 13.9528C29.43 14.037 29.3861 14.1136 29.324 14.174L29.324 14.1741L22.7 20.6281L22.4982 20.8247L22.5458 21.1024L24.1097 30.222C24.1243 30.3073 24.1147 30.395 24.0821 30.4752C24.0495 30.5553 23.9951 30.6248 23.9251 30.6757C23.855 30.7266 23.7722 30.7569 23.6859 30.7632C23.5996 30.7695 23.5133 30.7515 23.4366 30.7114C23.4366 30.7114 23.4366 30.7114 23.4365 30.7113L15.2492 26.4057L14.9998 26.2745L14.7505 26.4057L6.56309 30.7113C6.56305 30.7114 6.56301 30.7114 6.56297 30.7114C6.48634 30.7515 6.40002 30.7695 6.31374 30.7632C6.22741 30.7569 6.14456 30.7266 6.07455 30.6757C6.00454 30.6248 5.95014 30.5553 5.91751 30.4752C5.88489 30.395 5.87531 30.3074 5.88986 30.2221C5.88987 30.222 5.88987 30.222 5.88987 30.222L7.45381 21.1044L7.50142 20.8268L7.29971 20.6302L0.675713 14.1742L0.675575 14.174C0.613498 14.1136 0.56958 14.037 0.548789 13.9528L0.0289637 14.0813L0.548789 13.9528C0.527997 13.8687 0.531162 13.7805 0.557926 13.698C0.584689 13.6156 0.633984 13.5423 0.700231 13.4865C0.766477 13.4306 0.847035 13.3944 0.932791 13.382L0.932828 13.382L10.0868 12.052L10.3655 12.0115L10.4902 11.7589Z" stroke="#C0A991" stroke-opacity="0.4" stroke-width="1.07143"/>
</g>
</svg>
