<svg width="24" height="26" viewBox="0 0 24 26" fill="none" xmlns="http://www.w3.org/2000/svg">
<g opacity="0.8">
<path d="M12.7165 2.58148C12.6504 2.44793 12.5482 2.33552 12.4215 2.25694C12.2949 2.17836 12.1488 2.13672 11.9997 2.13672C11.8507 2.13672 11.7046 2.17836 11.578 2.25694C11.4513 2.33552 11.3491 2.44793 11.2829 2.58148L8.00774 9.21668L0.684544 10.2807C0.536784 10.3021 0.397978 10.3645 0.283828 10.4608C0.169678 10.557 0.0847412 10.6833 0.0386255 10.8253C-0.00749013 10.9673 -0.0129438 11.1194 0.0228815 11.2643C0.0587068 11.4093 0.134381 11.5413 0.241344 11.6455L5.54054 16.8103L4.28934 24.1047C4.26424 24.2517 4.28074 24.4028 4.33697 24.5409C4.39319 24.6791 4.48692 24.7987 4.60755 24.8864C4.72819 24.9741 4.87094 25.0263 5.01969 25.0372C5.16843 25.0481 5.31725 25.0171 5.44934 24.9479L11.9997 21.5031L18.5501 24.9479C18.6822 25.0171 18.8311 25.0481 18.9798 25.0372C19.1285 25.0263 19.2713 24.9741 19.3919 24.8864C19.5126 24.7987 19.6063 24.6791 19.6625 24.5409C19.7188 24.4028 19.7352 24.2517 19.7101 24.1047L18.4589 16.8087L23.7581 11.6455C23.8651 11.5413 23.9408 11.4093 23.9766 11.2643C24.0124 11.1194 24.007 10.9673 23.9609 10.8253C23.9147 10.6833 23.8298 10.557 23.7157 10.4608C23.6015 10.3645 23.4627 10.3021 23.3149 10.2807L15.9917 9.21668L12.7165 2.58148Z" fill="#C0A991"/>
<path d="M12.3324 2.77153C12.3325 2.77161 12.3325 2.7717 12.3325 2.77178L15.6074 9.40637L15.7072 9.6084L15.9301 9.64079L23.2533 10.7048L23.2534 10.7048C23.322 10.7148 23.3864 10.7437 23.4394 10.7884C23.4924 10.8331 23.5318 10.8917 23.5532 10.9577C23.5747 11.0236 23.5772 11.0942 23.5606 11.1615C23.5439 11.2288 23.5088 11.2901 23.4591 11.3385L23.4591 11.3385L18.1599 16.5017L17.9984 16.659L18.0365 16.8811L19.2877 24.1768C19.2993 24.2451 19.2917 24.3152 19.2656 24.3794C19.2395 24.4435 19.196 24.499 19.1399 24.5398C19.0839 24.5805 19.0177 24.6047 18.9486 24.6098C18.8797 24.6148 18.8107 24.6005 18.7495 24.5685C18.7494 24.5684 18.7492 24.5684 18.7491 24.5683L12.1992 21.1238L11.9997 21.0189L11.8003 21.1238L5.25037 24.5683C5.18904 24.6004 5.11995 24.6148 5.05089 24.6098C4.98183 24.6047 4.91555 24.5805 4.85954 24.5398C4.80353 24.499 4.76002 24.4435 4.73391 24.3794C4.70783 24.3153 4.70016 24.2452 4.71178 24.177C4.71178 24.1769 4.71179 24.1769 4.7118 24.1768L5.96295 16.8827L6.00104 16.6606L5.83967 16.5034L0.540472 11.3386L0.540363 11.3385C0.4907 11.2901 0.455566 11.2288 0.438933 11.1615C0.4223 11.0942 0.424832 11.0236 0.446243 10.9577C0.467654 10.8917 0.507089 10.8331 0.560087 10.7884C0.613085 10.7437 0.67753 10.7148 0.746132 10.7048L0.746165 10.7048L8.06937 9.64079L8.29233 9.6084L8.39205 9.40637L11.6669 2.77178C11.667 2.7717 11.667 2.77161 11.6671 2.77153C11.6978 2.70963 11.7452 2.65754 11.8039 2.62111C11.8627 2.58462 11.9305 2.56529 11.9997 2.56529C12.0689 2.56529 12.1368 2.58462 12.1956 2.62111C12.2543 2.65754 12.3017 2.70963 12.3324 2.77153Z" stroke="black" stroke-opacity="0.4" stroke-width="0.857143"/>
<path d="M12.3324 2.77153C12.3325 2.77161 12.3325 2.7717 12.3325 2.77178L15.6074 9.40637L15.7072 9.6084L15.9301 9.64079L23.2533 10.7048L23.2534 10.7048C23.322 10.7148 23.3864 10.7437 23.4394 10.7884C23.4924 10.8331 23.5318 10.8917 23.5532 10.9577C23.5747 11.0236 23.5772 11.0942 23.5606 11.1615C23.5439 11.2288 23.5088 11.2901 23.4591 11.3385L23.4591 11.3385L18.1599 16.5017L17.9984 16.659L18.0365 16.8811L19.2877 24.1768C19.2993 24.2451 19.2917 24.3152 19.2656 24.3794C19.2395 24.4435 19.196 24.499 19.1399 24.5398C19.0839 24.5805 19.0177 24.6047 18.9486 24.6098C18.8797 24.6148 18.8107 24.6005 18.7495 24.5685C18.7494 24.5684 18.7492 24.5684 18.7491 24.5683L12.1992 21.1238L11.9997 21.0189L11.8003 21.1238L5.25037 24.5683C5.18904 24.6004 5.11995 24.6148 5.05089 24.6098C4.98183 24.6047 4.91555 24.5805 4.85954 24.5398C4.80353 24.499 4.76002 24.4435 4.73391 24.3794C4.70783 24.3153 4.70016 24.2452 4.71178 24.177C4.71178 24.1769 4.71179 24.1769 4.7118 24.1768L5.96295 16.8827L6.00104 16.6606L5.83967 16.5034L0.540472 11.3386L0.540363 11.3385C0.4907 11.2901 0.455566 11.2288 0.438933 11.1615C0.4223 11.0942 0.424832 11.0236 0.446243 10.9577C0.467654 10.8917 0.507089 10.8331 0.560087 10.7884C0.613085 10.7437 0.67753 10.7148 0.746132 10.7048L0.746165 10.7048L8.06937 9.64079L8.29233 9.6084L8.39205 9.40637L11.6669 2.77178C11.667 2.7717 11.667 2.77161 11.6671 2.77153C11.6978 2.70963 11.7452 2.65754 11.8039 2.62111C11.8627 2.58462 11.9305 2.56529 11.9997 2.56529C12.0689 2.56529 12.1368 2.58462 12.1956 2.62111C12.2543 2.65754 12.3017 2.70963 12.3324 2.77153Z" stroke="#C0A991" stroke-opacity="0.4" stroke-width="0.857143"/>
</g>
</svg>
